<?xml version="1.0" standalone="no"?>
<!DOCTYPE svg PUBLIC "-//W3C//DTD SVG 20010904//EN"
 "http://www.w3.org/TR/2001/REC-SVG-20010904/DTD/svg10.dtd">
<svg version="1.0" xmlns="http://www.w3.org/2000/svg"
 width="634.000000pt" height="438.000000pt" viewBox="0 0 634.000000 438.000000"
 preserveAspectRatio="xMidYMid meet">

<g transform="translate(0.000000,438.000000) scale(0.100000,-0.100000)"
fill="#000000" stroke="none">
<path d="M2420 4219 c-78 -13 -206 -60 -283 -103 -348 -194 -545 -596 -451
-916 24 -81 83 -190 104 -190 27 0 150 92 213 160 72 77 124 147 168 225 44
78 102 135 172 169 47 24 77 30 177 37 127 10 187 25 260 67 111 63 240 183
279 261 l22 42 -21 29 c-65 91 -227 187 -362 214 -84 17 -191 19 -278 5z"/>
<path d="M3074 3734 c-123 -107 -243 -191 -327 -229 -32 -14 -112 -41 -178
-60 -182 -54 -205 -68 -364 -231 -145 -148 -240 -226 -328 -271 -29 -14 -54
-27 -55 -28 -9 -8 71 -68 138 -103 118 -62 184 -77 340 -77 162 0 251 22 395
95 103 53 163 95 249 178 199 192 308 466 275 697 -9 71 -23 125 -32 125 -2 0
-52 -43 -113 -96z"/>
<path d="M3775 3476 c-157 -51 -267 -151 -659 -590 -429 -482 -600 -637 -744
-676 -101 -27 -207 52 -384 287 -103 137 -148 183 -176 183 -35 -1 -104 -41
-159 -92 -62 -59 -206 -227 -363 -423 -206 -258 -331 -378 -455 -436 -33 -16
-131 -46 -218 -68 -156 -39 -196 -56 -271 -115 -71 -57 -177 -206 -225 -319
l-20 -45 157 105 c201 136 315 192 414 203 89 10 206 39 321 80 47 17 88 30
91 30 11 0 6 -66 -9 -116 -17 -56 -52 -109 -92 -135 l-27 -18 28 -7 c40 -10
115 0 161 21 22 11 67 46 99 79 63 64 283 336 406 503 41 56 80 102 87 103 6
0 41 -57 76 -127 134 -268 265 -445 423 -573 156 -125 288 -179 460 -187 114
-6 148 4 102 28 -94 49 -232 199 -320 345 -43 73 -118 240 -118 263 0 10 243
228 435 390 109 92 157 122 171 108 3 -3 -2 -31 -12 -63 -19 -66 -15 -150 11
-225 18 -52 50 -88 65 -73 5 5 76 113 157 239 345 534 419 645 431 645 6 0 12
-10 12 -22 0 -54 -203 -722 -269 -887 -31 -77 -37 -162 -17 -241 17 -65 59
-150 75 -150 5 0 12 16 15 36 4 19 83 185 176 367 93 183 199 406 236 497 94
231 138 295 206 306 77 13 147 -61 235 -245 125 -264 157 -321 234 -426 127
-171 411 -443 526 -503 20 -11 19 -7 -12 61 -66 142 -94 316 -59 365 36 51
103 14 274 -153 189 -184 294 -265 509 -395 102 -61 435 -230 455 -230 5 0
-18 28 -50 63 -159 167 -380 431 -580 693 -71 93 -169 210 -219 259 -106 107
-180 148 -345 190 -141 37 -185 54 -259 104 -144 98 -277 256 -514 611 -83
124 -173 249 -201 279 -85 90 -185 126 -271 97z"/>
<path d="M575 932 c-109 -41 -197 -121 -242 -220 -38 -83 -44 -215 -13 -307
49 -147 175 -257 327 -285 151 -27 351 52 408 161 13 25 12 26 -79 81 l-93 56
-17 -29 c-41 -69 -162 -91 -242 -44 -31 18 -50 39 -70 80 -24 50 -26 64 -22
131 4 62 10 82 34 116 38 54 85 78 152 78 64 0 125 -29 151 -70 l18 -30 86 61
86 62 -17 30 c-23 39 -88 92 -148 119 -69 31 -246 37 -319 10z"/>
<path d="M1345 938 c-3 -7 -36 -104 -75 -215 -38 -112 -101 -293 -140 -403
l-69 -201 117 3 116 3 24 78 24 77 112 0 112 0 23 -80 24 -80 113 0 c63 0 114
3 114 8 0 4 -63 189 -140 411 -77 222 -140 405 -140 407 0 2 -47 4 -105 4 -75
0 -107 -4 -110 -12z m150 -390 l32 -108 -74 0 c-66 0 -74 2 -70 18 32 112 71
224 75 212 3 -8 20 -63 37 -122z"/>
<path d="M1910 535 l0 -415 115 0 115 0 0 155 0 155 140 0 140 0 0 90 0 90
-140 0 -140 0 0 70 0 70 170 0 170 0 0 100 0 100 -285 0 -285 0 0 -415z"/>
<path d="M2570 535 l0 -415 295 0 295 0 0 100 0 100 -180 0 -180 0 0 65 0 65
150 0 150 0 0 90 0 90 -150 0 -150 0 0 60 0 60 175 0 175 0 0 100 0 100 -290
0 -290 0 0 -415z"/>
<path d="M3280 535 l0 -405 105 0 105 0 0 126 0 125 51 -3 51 -3 71 -122 71
-123 114 0 c100 0 113 2 108 16 -3 8 -37 69 -76 135 -38 66 -70 127 -70 136 0
8 13 31 30 49 56 65 75 112 75 194 0 58 -5 84 -23 117 -34 64 -77 109 -134
137 -51 25 -56 26 -265 26 l-213 0 0 -405z m393 198 c24 -27 30 -68 17 -108
-15 -46 -34 -55 -119 -55 l-71 0 0 90 0 90 78 0 c62 0 82 -4 95 -17z"/>
<path d="M4008 798 c31 -79 102 -260 158 -403 l101 -260 90 -3 90 -3 54 141
c38 100 58 140 68 138 9 -2 38 -61 70 -141 l55 -138 89 3 88 3 155 394 c85
217 154 399 154 403 0 5 -50 7 -112 6 l-111 -3 -85 -272 c-52 -166 -91 -273
-98 -273 -7 0 -25 38 -40 84 l-27 84 66 191 66 192 -96 -3 -96 -3 -31 -110
c-36 -127 -54 -143 -74 -68 -7 26 -22 78 -33 116 l-20 67 -94 0 -94 0 65 -192
64 -192 -27 -83 c-15 -46 -32 -83 -39 -83 -6 0 -27 51 -47 113 -19 61 -59 185
-87 275 l-51 162 -114 0 -113 0 56 -142z"/>
<path d="M5405 928 c-22 -59 -275 -791 -275 -794 0 -3 48 -3 106 -2 l107 3 22
75 22 75 120 3 120 3 23 -81 23 -80 103 0 c57 0 104 3 104 8 0 4 -61 186 -137
405 l-137 397 -98 0 c-70 0 -100 -4 -103 -12z m140 -363 c39 -139 42 -130 -40
-127 -38 2 -70 4 -71 5 -1 1 14 55 34 120 19 65 38 114 42 110 4 -4 20 -53 35
-108z"/>
</g>
</svg>
